<svg width="56" height="56" viewBox="0 0 56 56" fill="none" xmlns="http://www.w3.org/2000/svg">
<path d="M23.3103 41.9537C33.6068 41.9537 41.9537 33.6068 41.9537 23.3103C41.9537 13.0139 33.6068 4.66699 23.3103 4.66699C13.0139 4.66699 4.66699 13.0139 4.66699 23.3103C4.66699 33.6068 13.0139 41.9537 23.3103 41.9537Z" fill="#05422C" stroke="#05422C" stroke-width="1.5" stroke-linecap="round" stroke-linejoin="round"/>
<path d="M30.2871 46.3863C32.3871 49.3497 35.8171 51.2863 39.7371 51.2863C46.1071 51.2863 51.2871 46.1063 51.2871 39.7363C51.2871 35.863 49.3738 32.433 46.4571 30.333" stroke="#C3D2CC" stroke-width="1.5" stroke-linecap="round" stroke-linejoin="round"/>
<path d="M18.667 26.5998C18.667 28.3965 20.067 29.8665 21.7703 29.8665H25.2703C26.7637 29.8665 27.977 28.5831 27.977 27.0198C27.977 25.3165 27.2303 24.7098 26.1337 24.3131L20.5337 22.3531C19.4137 21.9565 18.667 21.3498 18.667 19.6465C18.667 18.0831 19.8803 16.7998 21.3737 16.7998H24.8737C26.6003 16.8231 28.0003 18.2698 28.0003 20.0665" stroke="white" stroke-width="1.5" stroke-linecap="round" stroke-linejoin="round"/>
<path d="M23.333 29.9834V31.7101" stroke="white" stroke-width="1.5" stroke-linecap="round" stroke-linejoin="round"/>
<path d="M23.333 14.957V16.777" stroke="white" stroke-width="1.5" stroke-linecap="round" stroke-linejoin="round"/>
</svg>
