<svg width="12" height="13" viewBox="0 0 12 13" fill="none" xmlns="http://www.w3.org/2000/svg">
<path d="M6.86544 2.25531L7.74544 4.01531C7.86544 4.26031 8.18544 4.49531 8.45544 4.54031L10.0504 4.80531C11.0704 4.97531 11.3104 5.71531 10.5754 6.44531L9.33544 7.68531C9.12544 7.89531 9.01044 8.30031 9.07544 8.59031L9.43044 10.1253C9.71044 11.3403 9.06544 11.8103 7.99044 11.1753L6.49544 10.2903C6.22544 10.1303 5.78044 10.1303 5.50544 10.2903L4.01044 11.1753C2.94044 11.8103 2.29044 11.3353 2.57044 10.1253L2.92544 8.59031C2.99044 8.30031 2.87544 7.89531 2.66544 7.68531L1.42544 6.44531C0.695443 5.71531 0.930443 4.97531 1.95044 4.80531L3.54544 4.54031C3.81044 4.49531 4.13044 4.26031 4.25044 4.01531L5.13044 2.25531C5.61044 1.30031 6.39044 1.30031 6.86544 2.25531Z" fill="#F2BC1B" stroke="#F2BC1B" stroke-width="1.5" stroke-linecap="round" stroke-linejoin="round"/>
</svg>
