<svg width="56" height="56" viewBox="0 0 56 56" fill="none" xmlns="http://www.w3.org/2000/svg">
<path d="M50.167 36.667C50.5442 36.667 50.8337 36.9565 50.8337 37.3337V39.667C50.8337 43.102 48.1868 45.9038 44.8159 46.1495C44.5479 42.2624 41.2859 39.167 37.3337 39.167C33.3755 39.167 30.1096 42.2717 29.8503 46.167H26.1504C25.8911 42.2717 22.6252 39.167 18.667 39.167C14.7148 39.167 11.4527 42.2624 11.1848 46.1495C7.81389 45.9038 5.16699 43.102 5.16699 39.667V35.0003C5.16699 33.9931 5.99313 33.167 7.00033 33.167H29.167C32.6631 33.167 35.5003 30.3298 35.5003 26.8337V14.0003C35.5003 12.9931 36.3265 12.167 37.3337 12.167H39.2937C40.7907 12.167 42.1677 12.9779 42.9206 14.2736C42.9208 14.274 42.921 14.2743 42.9213 14.2747L44.4112 16.8821C44.4113 16.8823 44.4114 16.8826 44.4116 16.8828C44.4189 16.8963 44.4241 16.9215 44.404 16.9558C44.3944 16.9721 44.3822 16.9837 44.371 16.9905C44.3613 16.9964 44.35 17.0003 44.3337 17.0003C40.8375 17.0003 38.0003 19.8375 38.0003 23.3337V30.3337C38.0003 33.8298 40.8375 36.667 44.3337 36.667H50.167Z" fill="#05422C" stroke="#05422C"/>
<path d="M22.8333 46.6667C22.8333 48.9679 20.9679 50.8333 18.6667 50.8333C16.3655 50.8333 14.5 48.9679 14.5 46.6667C14.5 44.3655 16.3655 42.5 18.6667 42.5C20.9679 42.5 22.8333 44.3655 22.8333 46.6667Z" fill="#C3D2CC" stroke="#C3D2CC"/>
<path d="M41.5003 46.6667C41.5003 48.9679 39.6348 50.8333 37.3337 50.8333C35.0325 50.8333 33.167 48.9679 33.167 46.6667C33.167 44.3655 35.0325 42.5 37.3337 42.5C39.6348 42.5 41.5003 44.3655 41.5003 46.6667Z" fill="#C3D2CC" stroke="#C3D2CC"/>
<path d="M51.3333 29.2367V32.6667H44.3333C43.05 32.6667 42 31.6167 42 30.3333V23.3333C42 22.05 43.05 21 44.3333 21H47.3433L50.7267 26.9267C51.1233 27.6267 51.3333 28.42 51.3333 29.2367Z" fill="#C3D2CC"/>
<path d="M30.5194 4.66699H13.276C9.09935 4.66699 5.59935 7.65366 4.82935 11.6203H15.026C15.9127 11.6203 16.6127 12.3437 16.6127 13.2303C16.6127 14.117 15.9127 14.817 15.026 14.817H4.66602V18.037H10.7327C11.6193 18.037 12.3427 18.7603 12.3427 19.647C12.3427 20.5337 11.6193 21.2337 10.7327 21.2337H4.66602V24.4537H6.46268C7.34935 24.4537 8.07268 25.177 8.07268 26.0637C8.07268 26.9503 7.34935 27.6503 6.46268 27.6503H4.66602V28.187C4.66602 29.4703 5.71602 30.5203 6.99935 30.5203H28.3493C30.7293 30.5203 32.666 28.5837 32.666 26.2037V6.81366C32.666 5.62366 31.7094 4.66699 30.5194 4.66699Z" fill="#05422C"/>
<path d="M4.82967 11.6201H4.47967H2.19301C1.30634 11.6201 0.583008 12.3435 0.583008 13.2301C0.583008 14.1168 1.30634 14.8168 2.19301 14.8168H4.31634H4.66634V13.2768C4.66634 12.7168 4.73634 12.1568 4.82967 11.6201Z" fill="#05422C"/>
<path d="M4.31634 18.0371H2.19301C1.30634 18.0371 0.583008 18.7604 0.583008 19.6471C0.583008 20.5338 1.30634 21.2338 2.19301 21.2338H4.31634H4.66634V18.0371H4.31634Z" fill="#05422C"/>
<path d="M4.31634 24.4541H2.19301C1.30634 24.4541 0.583008 25.1774 0.583008 26.0641C0.583008 26.9508 1.30634 27.6508 2.19301 27.6508H4.31634H4.66634V24.4541H4.31634Z" fill="#05422C"/>
</svg>
