<svg width="144" height="144" viewBox="0 0 144 144" fill="none" xmlns="http://www.w3.org/2000/svg">
<rect x="48" y="70" width="70" height="49" rx="8" fill="#9BDDA2"/>
<path d="M72.014 11.8226C72.863 10.6055 73.9536 9.57638 75.218 8.79948C76.4824 8.02258 77.8933 7.51458 79.3627 7.30718C80.8321 7.09977 82.3284 7.19741 83.7584 7.594C85.1884 7.9906 86.5213 8.67763 87.674 9.61225L111.218 28.7282C113.322 30.4353 114.707 32.8707 115.099 35.5514C115.491 38.232 114.861 40.9622 113.335 43.2002H104.551L107.359 39.1754C107.881 38.4299 108.102 37.5141 107.977 36.6123C107.851 35.7105 107.388 34.8898 106.682 34.3154L94.5572 24.4802L81.626 43.2002H72.8636L88.9484 19.9298L83.1308 15.2066C82.7467 14.895 82.3026 14.6658 81.826 14.5334C81.3494 14.401 80.8507 14.3683 80.3609 14.4372C79.8711 14.5061 79.4008 14.6752 78.9792 14.9339C78.5577 15.1927 78.194 15.5355 77.9108 15.941L58.8956 43.193H50.1116L72.014 11.8226ZM97.1996 86.4002C96.2448 86.4002 95.3292 86.7795 94.654 87.4547C93.9789 88.1298 93.5996 89.0455 93.5996 90.0003C93.5996 90.955 93.9789 91.8707 94.654 92.5458C95.3292 93.221 96.2448 93.6003 97.1996 93.6003H104.4C105.354 93.6003 106.27 93.221 106.945 92.5458C107.62 91.8707 108 90.955 108 90.0003C108 89.0455 107.62 88.1298 106.945 87.4547C106.27 86.7795 105.354 86.4002 104.4 86.4002H97.1996ZM32.3996 36.0002H48.0164L42.9764 43.2002H32.3996C31.4448 43.2002 30.5292 43.5795 29.854 44.2547C29.1789 44.9298 28.7996 45.8455 28.7996 46.8002C28.7996 47.755 29.1789 48.6707 29.854 49.3458C30.5292 50.021 31.4448 50.4002 32.3996 50.4002H108C111.819 50.4002 115.481 51.9174 118.182 54.6179C120.882 57.3184 122.4 60.9811 122.4 64.8002V108C122.4 111.819 120.882 115.482 118.182 118.183C115.481 120.883 111.819 122.4 108 122.4H39.5996C34.8257 122.4 30.2473 120.504 26.8717 117.128C23.496 113.753 21.5996 109.174 21.5996 104.4V46.8002C21.5996 43.9359 22.7375 41.1889 24.7629 39.1635C26.7882 37.1381 29.5353 36.0002 32.3996 36.0002ZM28.7996 104.4C28.7996 107.265 29.9375 110.012 31.9629 112.037C33.9882 114.062 36.7353 115.2 39.5996 115.2H108C109.909 115.2 111.741 114.442 113.091 113.091C114.441 111.741 115.2 109.91 115.2 108V64.8002C115.2 62.8907 114.441 61.0593 113.091 59.7091C111.741 58.3588 109.909 57.6002 108 57.6002H32.3996C31.1396 57.6002 29.9228 57.3842 28.7996 56.9882V104.4Z" fill="white"/>
</svg>
