<svg width="144" height="144" viewBox="0 0 144 144" fill="none" xmlns="http://www.w3.org/2000/svg">
<rect x="54" y="38" width="57" height="92" rx="8" fill="#9BDDA2"/>
<path fill-rule="evenodd" clip-rule="evenodd" d="M39 27C38.2044 27 37.4413 27.3161 36.8787 27.8787C36.3161 28.4413 36 29.2044 36 30V123C36 123.796 36.3161 124.559 36.8787 125.121C37.4413 125.684 38.2044 126 39 126H105C105.796 126 106.559 125.684 107.121 125.121C107.684 124.559 108 123.796 108 123V30C108 29.2044 107.684 28.4413 107.121 27.8787C106.559 27.3161 105.796 27 105 27H88.251V21H105C107.387 21 109.676 21.9482 111.364 23.636C113.052 25.3239 114 27.6131 114 30V123C114 125.387 113.052 127.676 111.364 129.364C109.676 131.052 107.387 132 105 132H39C36.6131 132 34.3239 131.052 32.636 129.364C30.9482 127.676 30 125.387 30 123V30C30 27.6131 30.9482 25.3239 32.636 23.636C34.3239 21.9482 36.6131 21 39 21H55.749V27H39Z" fill="white"/>
<path fill-rule="evenodd" clip-rule="evenodd" d="M51 21C51 18.6131 51.9482 16.3239 53.636 14.636C55.3239 12.9482 57.6131 12 60 12H84C86.3869 12 88.6761 12.9482 90.364 14.636C92.0518 16.3239 93 18.6131 93 21V27C93 29.3869 92.0518 31.6761 90.364 33.364C88.6761 35.0518 86.3869 36 84 36H60C57.6131 36 55.3239 35.0518 53.636 33.364C51.9482 31.6761 51 29.3869 51 27V21ZM60 18C59.2044 18 58.4413 18.3161 57.8787 18.8787C57.3161 19.4413 57 20.2044 57 21V27C57 27.7956 57.3161 28.5587 57.8787 29.1213C58.4413 29.6839 59.2044 30 60 30H84C84.7957 30 85.5587 29.6839 86.1213 29.1213C86.6839 28.5587 87 27.7956 87 27V21C87 20.2044 86.6839 19.4413 86.1213 18.8787C85.5587 18.3161 84.7957 18 84 18H60ZM45 63C45 62.2043 45.3161 61.4413 45.8787 60.8787C46.4413 60.3161 47.2044 60 48 60H69C69.7956 60 70.5587 60.3161 71.1213 60.8787C71.6839 61.4413 72 62.2043 72 63C72 63.7957 71.6839 64.5587 71.1213 65.1213C70.5587 65.6839 69.7956 66 69 66H48C47.2044 66 46.4413 65.6839 45.8787 65.1213C45.3161 64.5587 45 63.7957 45 63ZM45 48C45 47.2043 45.3161 46.4413 45.8787 45.8787C46.4413 45.3161 47.2044 45 48 45H94.5C95.2957 45 96.0587 45.3161 96.6213 45.8787C97.1839 46.4413 97.5 47.2043 97.5 48C97.5 48.7957 97.1839 49.5587 96.6213 50.1213C96.0587 50.6839 95.2957 51 94.5 51H48C47.2044 51 46.4413 50.6839 45.8787 50.1213C45.3161 49.5587 45 48.7957 45 48ZM51 87V93H57V87H51ZM48 81C47.2044 81 46.4413 81.3161 45.8787 81.8787C45.3161 82.4413 45 83.2044 45 84V96C45 96.7956 45.3161 97.5587 45.8787 98.1213C46.4413 98.6839 47.2044 99 48 99H60C60.7956 99 61.5587 98.6839 62.1213 98.1213C62.6839 97.5587 63 96.7956 63 96V84C63 83.2044 62.6839 82.4413 62.1213 81.8787C61.5587 81.3161 60.7956 81 60 81H48ZM84 87C84.4048 87.0185 84.8092 86.9548 85.1888 86.8128C85.5683 86.6707 85.9151 86.4532 86.2083 86.1734C86.5015 85.8936 86.7349 85.5574 86.8945 85.1849C87.0542 84.8124 87.1367 84.4114 87.1371 84.0061C87.1375 83.6009 87.0558 83.1997 86.8969 82.8269C86.738 82.4541 86.5052 82.1174 86.2126 81.837C85.92 81.5566 85.5736 81.3384 85.1944 81.1956C84.8151 81.0528 84.4109 80.9883 84.006 81.006C83.2343 81.0398 82.5054 81.3699 81.971 81.9276C81.4366 82.4853 81.1379 83.2277 81.1371 84.0001C81.1363 84.7726 81.4335 85.5155 81.9668 86.0743C82.5001 86.6331 83.2284 86.9647 84 87ZM84 93C86.3869 93 88.6761 92.0518 90.364 90.364C92.0518 88.6761 93 86.3869 93 84C93 81.6131 92.0518 79.3239 90.364 77.636C88.6761 75.9482 86.3869 75 84 75C81.6131 75 79.3239 75.9482 77.636 77.636C75.9482 79.3239 75 81.6131 75 84C75 86.3869 75.9482 88.6761 77.636 90.364C79.3239 92.0518 81.6131 93 84 93ZM72 105.84C72.0524 105.779 72.1075 105.72 72.165 105.663C72.657 105.183 73.605 104.547 75.093 103.914C78.093 102.639 81.795 102 84 102C86.205 102 89.907 102.639 92.907 103.914C94.395 104.544 95.343 105.183 95.835 105.663C95.8925 105.719 95.9475 105.777 96 105.837V111H72V105.84ZM84 96C77.991 96 66 99.198 66 105.546V117H102V105.546C102 99.198 90.009 96 84 96Z" fill="white"/>
</svg>
