<svg width="144" height="144" viewBox="0 0 144 144" fill="none" xmlns="http://www.w3.org/2000/svg">
<rect x="53" y="44" width="84" height="84" rx="42" fill="#9BDDA2"/>
<path d="M126.225 58.6125C124.031 56.3062 121.781 53.9437 120.881 51.75C119.981 49.5563 119.981 46.6875 119.925 43.4813C119.869 38.25 119.756 32.2313 115.763 28.2375C111.769 24.2438 105.75 24.1312 100.519 24.075C97.3125 24.0187 94.275 23.9625 92.25 23.1187C90.225 22.275 87.6937 19.9688 85.3875 17.775C81.675 14.175 77.4 10.125 72 10.125C66.6 10.125 62.325 14.175 58.6125 17.775C56.3062 19.9688 53.9437 22.2187 51.75 23.1187C49.5563 24.0187 46.6875 24.0187 43.4813 24.075C38.25 24.1312 32.2313 24.2438 28.2375 28.2375C24.2438 32.2313 24.1312 38.25 24.075 43.4813C24.0187 46.6875 23.9625 49.725 23.1187 51.75C22.275 53.775 19.9688 56.3062 17.775 58.6125C14.175 62.325 10.125 66.6 10.125 72C10.125 77.4 14.175 81.675 17.775 85.3875C19.9688 87.6937 22.2187 90.0563 23.1187 92.25C24.0187 94.4437 24.0187 97.3125 24.075 100.519C24.1312 105.75 24.2438 111.769 28.2375 115.763C32.2313 119.756 38.25 119.869 43.4813 119.925C46.6875 119.981 49.725 120.037 51.75 120.881C53.775 121.725 56.3062 124.031 58.6125 126.225C62.325 129.825 66.6 133.875 72 133.875C77.4 133.875 81.675 129.825 85.3875 126.225C87.6937 124.031 90.0563 121.781 92.25 120.881C94.4437 119.981 97.3125 119.981 100.519 119.925C105.75 119.869 111.769 119.756 115.763 115.763C119.756 111.769 119.869 105.75 119.925 100.519C119.981 97.3125 120.037 94.275 120.881 92.25C121.725 90.225 124.031 87.6937 126.225 85.3875C129.825 81.675 133.875 77.4 133.875 72C133.875 66.6 129.825 62.325 126.225 58.6125ZM121.388 80.7188C118.744 83.475 116.044 86.2875 114.638 89.6625C113.231 93.0375 113.231 96.6937 113.175 100.406C113.119 104.119 113.062 108.9 110.981 110.981C108.9 113.062 104.569 113.119 100.406 113.175C96.2438 113.231 92.8687 113.287 89.6625 114.638C86.4562 115.988 83.475 118.744 80.7188 121.388C77.9625 124.031 74.7 127.125 72 127.125C69.3 127.125 66.2625 124.2 63.2812 121.388C60.3 118.575 57.7125 116.044 54.3375 114.638C50.9625 113.231 47.3063 113.231 43.5938 113.175C39.8813 113.119 35.1 113.062 33.0188 110.981C30.9375 108.9 30.8813 104.569 30.825 100.406C30.7687 96.2438 30.7125 92.8687 29.3625 89.6625C28.0125 86.4562 25.2563 83.475 22.6125 80.7188C19.9688 77.9625 16.875 74.7 16.875 72C16.875 69.3 19.8 66.2625 22.6125 63.2812C25.425 60.3 27.9563 57.7125 29.3625 54.3375C30.7688 50.9625 30.7687 47.3063 30.825 43.5938C30.8813 39.8813 30.9375 35.1 33.0188 33.0188C35.1 30.9375 39.4312 30.8813 43.5938 30.825C47.7562 30.7687 51.1312 30.7125 54.3375 29.3625C57.5438 28.0125 60.525 25.2563 63.2812 22.6125C66.0375 19.9688 69.3 16.875 72 16.875C74.7 16.875 77.7375 19.8 80.7188 22.6125C83.7 25.425 86.2875 27.9563 89.6625 29.3625C93.0375 30.7688 96.6937 30.7687 100.406 30.825C104.119 30.8813 108.9 30.9375 110.981 33.0188C113.062 35.1 113.119 39.4312 113.175 43.5938C113.231 47.7562 113.287 51.1312 114.638 54.3375C115.988 57.5438 118.744 60.525 121.388 63.2812C124.031 66.0375 127.125 69.3 127.125 72C127.125 74.7 124.2 77.7375 121.388 80.7188ZM99.1688 56.1938C99.4744 56.5099 99.7143 56.8836 99.8743 57.2932C100.034 57.7028 100.111 58.1402 100.101 58.5798C100.09 59.0194 99.9926 59.4526 99.8133 59.8541C99.634 60.2556 99.3766 60.6175 99.0563 60.9188L66.0938 92.4188C65.4521 93.0195 64.6101 93.3603 63.7313 93.375C62.8661 93.3746 62.0366 93.0307 61.425 92.4188L44.9438 76.6688C44.3023 76.0571 43.93 75.2157 43.9089 74.3295C43.8878 73.4434 44.2196 72.5852 44.8312 71.9438C45.4429 71.3023 46.2843 70.93 47.1705 70.9089C48.0566 70.8878 48.9148 71.2196 49.5562 71.8312L63.7313 85.3312L94.4437 56.0812C94.7599 55.7756 95.1336 55.5357 95.5432 55.3757C95.9528 55.2157 96.3902 55.1387 96.8298 55.1492C97.2694 55.1596 97.7026 55.2574 98.1041 55.4367C98.5056 55.616 98.8675 55.8734 99.1688 56.1938Z" fill="white"/>
</svg>
