<svg width="144" height="144" viewBox="0 0 144 144" fill="none" xmlns="http://www.w3.org/2000/svg">
<rect x="31" y="46" width="70" height="64" rx="8" fill="#9BDDA2"/>
<path d="M71.9998 17.9999C69.3256 15.9942 66.1456 14.7728 62.8163 14.4726C59.487 14.1724 56.1399 14.8053 53.15 16.3002C50.1601 17.7952 47.6455 20.0932 45.8881 22.9368C44.1307 25.7803 43.1998 29.0571 43.1998 32.3999V43.1999H35.9998C34.0902 43.1999 32.2589 43.9585 30.9086 45.3087C29.5584 46.659 28.7998 48.4903 28.7998 50.3999V108C28.7998 113.729 31.0755 119.223 35.1263 123.273C39.1771 127.324 44.6711 129.6 50.3998 129.6H83.0158L75.967 122.4H50.3998C46.5807 122.4 42.918 120.883 40.2175 118.182C37.5169 115.482 35.9998 111.819 35.9998 108V50.3999H79.1998V65.1743C80.4079 64.925 81.6383 64.7996 82.8718 64.7999H86.3998V50.3999H108V65.3543C110.635 66.0239 113.105 67.2839 115.2 69.0551V50.3999C115.2 48.4903 114.441 46.659 113.091 45.3087C111.741 43.9585 109.909 43.1999 108 43.1999H100.8V32.3999C100.8 29.0571 99.8689 25.7803 98.1115 22.9368C96.3541 20.0932 93.8396 17.7952 90.8497 16.3002C87.8597 14.8053 84.5126 14.1724 81.1833 14.4726C77.854 14.7728 74.6741 15.9942 71.9998 17.9999ZM50.3998 32.3999C50.3998 29.5356 51.5377 26.7885 53.563 24.7632C55.5884 22.7378 58.3355 21.5999 61.1998 21.5999C64.0641 21.5999 66.8112 22.7378 68.8366 24.7632C70.8619 26.7885 71.9998 29.5356 71.9998 32.3999V43.1999H50.3998V32.3999ZM76.8022 23.4143C78.4287 22.3282 80.3197 21.7041 82.2732 21.6087C84.2267 21.5134 86.1694 21.9503 87.894 22.8728C89.6186 23.7954 91.0603 25.1689 92.0652 26.8468C93.0701 28.5248 93.6005 30.4441 93.5998 32.3999V43.1999H79.1998V32.3999C79.1998 29.1311 78.3286 26.0639 76.8022 23.4143ZM75.1102 111.233C73.1174 109.198 72.0009 106.463 71.9998 103.615V82.8791C71.9989 81.4508 72.2794 80.0362 72.8253 78.7164C73.3713 77.3965 74.1719 76.1971 75.1816 75.1868C76.1912 74.1765 77.3901 73.375 78.7096 72.8282C80.0291 72.2814 81.4435 71.9999 82.8718 71.9999H103.557C106.459 71.9999 109.238 73.1591 111.276 75.2183L133.646 97.8263C134.662 98.8516 135.463 100.068 136.004 101.406C136.546 102.744 136.816 104.175 136.799 105.618C136.782 107.061 136.479 108.486 135.907 109.811C135.335 111.136 134.505 112.334 133.466 113.335L112.248 133.762C110.185 135.749 107.42 136.841 104.555 136.8C101.691 136.758 98.959 135.586 96.955 133.538L75.1102 111.233ZM86.3998 91.7999C86.3998 93.2321 86.9687 94.6056 87.9814 95.6183C88.9941 96.631 90.3676 97.1999 91.7998 97.1999C93.232 97.1999 94.6055 96.631 95.6182 95.6183C96.6309 94.6056 97.1998 93.2321 97.1998 91.7999C97.1998 90.3677 96.6309 88.9942 95.6182 87.9815C94.6055 86.9688 93.232 86.3999 91.7998 86.3999C90.3676 86.3999 88.9941 86.9688 87.9814 87.9815C86.9687 88.9942 86.3998 90.3677 86.3998 91.7999Z" fill="white"/>
</svg>
